# xmcd
#
# Track frame offsets: 
#        150
#        24910
#        54902
#        82357
#        103232
#        119750
#        140662
#        161472
#        181015
#        201710
#
# Disc length: 3036 seconds
#
# Revision: 5
# Processed by: cddbd v1.5.2PL0 Copyright (c) Steve Scherf et al.
# Submitted via: ExactAudioCopy v0.95a5
#
DISCID=900bda0a
DTITLE=Marvin Sease - A Woman Would Rather Be Licked
DYEAR=2001
DGENRE=Blues
TTITLE0=Money Is What You Want
TTITLE1=I Gotta Clean Up
TTITLE2=I Wanna Love You
TTITLE3=Any Way You Want It
TTITLE4=Use'ta Don't Count
TTITLE5=A Woman Would Rather Be Licked
TTITLE6=Ditch Diggers
TTITLE7=She's My Baby's Momma
TTITLE8=Friday
TTITLE9=We're Still Together
EXTD=ID3G:   0
EXTT0=
EXTT1=
EXTT2=
EXTT3=
EXTT4=
EXTT5=
EXTT6=
EXTT7=
EXTT8=
EXTT9=
PLAYORDER=
